<?xml version="1.0" ?><!DOCTYPE svg  PUBLIC '-//W3C//DTD SVG 1.1//EN'  'http://www.w3.org/Graphics/SVG/1.1/DTD/svg11.dtd'><svg enable-background="new 0 0 512 512" id="Layer_1" version="1.1" viewBox="0 0 512 512" xml:space="preserve" xmlns="http://www.w3.org/2000/svg" xmlns:xlink="http://www.w3.org/1999/xlink"><g><path d="M258.8,507.2C120.4,507.8,6.6,392.6,9.9,251.9C13,118,124,7.2,262,8.7C398.7,10.2,511.8,124,508.1,264.9   C504.6,398.3,394.5,507.9,258.8,507.2z M477.8,258.1C476.9,135,379.3,40.1,263,38C142.7,35.8,40.3,132.7,40.4,258.1   C40.5,381.4,139.1,476,255.2,478C375.2,480,476.8,383.5,477.8,258.1z"/><path d="M272.1,382.9c-10.2,0-19.9,0-30.3,0c0,1.8,0,3.6,0,5.3c0,14.8,0.2,29.7-0.1,44.5c-0.1,4.4-0.9,9-2.6,13   c-4.3,10-14,15-24.3,13.1c-9.2-1.7-17.5-10.9-17.8-20.9c-0.4-16.1-0.2-32.3-0.2-48.5c0-2,0-3.9,0-6.8c-4.6,0-8.8,0-13.1,0   c-17.2,0-27.7-10.4-27.7-27.7c0-49.2,0-98.3,0-147.5c0-1.5,0-3,0-4.9c67.3,0,134.3,0,201.9,0c0.1,1.7,0.3,3.5,0.3,5.2   c0,49,0,98,0,147c0,17.5-10.4,27.9-28,27.9c-4,0-8,0-12.5,0c-0.1,2.1-0.3,3.8-0.3,5.6c0,15.8,0.2,31.7-0.1,47.5   c-0.2,15-12.2,25.4-26.2,23.2c-10.9-1.7-18.7-12.1-18.8-25.5c-0.1-14.8,0-29.7,0-44.5C272.1,387.2,272.1,385.4,272.1,382.9z"/><path d="M306.4,107.7c32.4,19.6,49.8,47.4,51.9,85.3c-67.7,0-134.8,0-202.5,0c1.8-37.9,19.5-65.8,51.8-85.3   c-4.8-9.3-9.6-18.4-14.3-27.5c-0.3-0.6-0.9-1.2-0.9-1.8c0-1.8,0.2-3.5,0.4-5.3c1.5,0.8,3.8,1.1,4.5,2.3c4.1,7.2,7.9,14.6,11.8,22   c1.2,2.3,2.5,4.6,4.1,7.5C242.4,92.1,271.6,92,301,105c4.8-9,9.2-17.8,14-26.3c1.3-2.4,1.9-7.6,6-5.5c4.4,2.2,0.4,5.5-0.8,8   C315.7,90.1,311.1,98.7,306.4,107.7z M201.8,145.5c-0.1,5.2,3.4,9.2,8.3,9.3c4.7,0.1,8.7-3.9,8.9-8.9c0.2-5.1-3.4-9.1-8.4-9.2   C205.5,136.6,201.9,140.2,201.8,145.5z M312.2,145.8c0.1-5.3-3.4-9-8.4-9c-4.9,0-8.7,3.9-8.7,8.9c0,4.9,3.9,9.1,8.6,9.2   C308.5,154.8,312.1,151,312.2,145.8z"/><path d="M411.9,272c0,16.3,0.1,32.7,0,49c-0.1,10-4.3,17.9-13.4,22.2c-13.9,6.6-29.6-3-31.4-18.9c-0.2-1.5-0.2-3-0.2-4.5   c0-31.8,0-63.7,0-95.5c0-7.1,1.6-13.6,6.5-18.9c6.3-6.8,15.4-9,23.7-5.9c8.9,3.4,14.8,12.2,14.9,22.9   C412,239,411.9,255.5,411.9,272z"/><path d="M147.2,271.8c0,16.2,0.1,32.3,0,48.5c-0.1,10.3-4.1,18.6-13.7,23.1c-14.8,6.9-31-4.3-31.3-21.7c-0.3-18.3-0.1-36.7-0.1-55   c0-14.7-0.1-29.3,0-44c0.1-12.1,7.5-21.7,18.1-23.9c13.3-2.7,26.1,7.1,26.6,21.5c0.6,17.1,0.1,34.3,0.1,51.5   C147.1,271.8,147.2,271.8,147.2,271.8z"/></g></svg>