<?xml version="1.0" ?><!DOCTYPE svg  PUBLIC '-//W3C//DTD SVG 1.1//EN'  'http://www.w3.org/Graphics/SVG/1.1/DTD/svg11.dtd'><svg enable-background="new 0 0 512 512" id="Layer_1" version="1.1" viewBox="0 0 512 512" xml:space="preserve" xmlns="http://www.w3.org/2000/svg" xmlns:xlink="http://www.w3.org/1999/xlink"><g><path d="M259.1,507.2C120.5,507.9,6.7,392.7,9.9,252.2c3-134,114-245.1,252.3-243.5c136.7,1.6,249.5,115.4,245.9,255.9   C504.8,398,394.8,507.7,259.1,507.2z M40.2,258.2C41.3,383.5,142.6,479.8,262.4,478c116.2-1.8,215.2-96.4,215.3-220   c0-125.2-102.1-222-222.2-220C139.1,39.9,41,134.7,40.2,258.2z"/><path d="M399.9,199.3c-13.5,8.4-23.6,19-30.3,32.6c-17,34.8-8.5,84.3,35.1,106.3c4,2,4.6,3.9,3,8c-10,27.1-24.8,51.1-44.5,72.2   c-10.8,11.5-23.5,18.8-39.9,16.1c-7.5-1.3-15.1-3.2-22-6.3c-20.4-9.2-40.6-8.5-61.2-0.6c-7.3,2.8-14.7,5.4-22.3,7.1   c-16,3.5-28.1-4.2-38.6-15c-26-26.5-43.1-58.1-53.1-93.7c-7.1-25.3-10.6-50.9-6.4-77.1c4.9-30.5,18.2-56,45.6-72.2   c23.2-13.7,47.4-15.1,72.4-4.9c7.1,2.9,14.2,5.8,21.6,7.6c4.4,1.1,9.6,0.8,14-0.4c14.2-4.1,27.9-10.3,42.3-13.1   c32-6.1,59,4.5,80.7,28.6C397.9,195.7,398.7,197.4,399.9,199.3z"/><path d="M263.6,160.1c-4.5-41.3,31.8-78.8,71.3-82c0,4.8,0.4,9.5-0.1,14.2c-2.7,25-15.1,44.4-35.4,58.7   C288.8,158.5,276.6,161.6,263.6,160.1z"/></g></svg>