<?xml version="1.0" ?><!DOCTYPE svg  PUBLIC '-//W3C//DTD SVG 1.1//EN'  'http://www.w3.org/Graphics/SVG/1.1/DTD/svg11.dtd'><svg enable-background="new 0 0 512 512" id="Layer_1" version="1.1" viewBox="0 0 512 512" xml:space="preserve" xmlns="http://www.w3.org/2000/svg" xmlns:xlink="http://www.w3.org/1999/xlink"><g><path d="M258.9,507.2C120.4,507.9,6.7,392.7,9.9,252.1c3-134,114.1-245,252.5-243.4c136.6,1.6,249.4,115.4,245.8,256   C504.7,398.1,394.7,507.8,258.9,507.2z M477.8,258.6c-0.5-121.3-95.9-217.8-213.3-220.5C141.2,35.3,41,132.9,40.4,257.6   c-0.6,121.2,95.7,217.2,212.8,220.3C373.9,481.2,476.4,384.6,477.8,258.6z"/><path d="M414.3,226.5c4.7,15.6,4.6,31.5,3.4,47.2c-2,27.2-9.1,53.1-23.5,76.6c-25.8,42.1-63.6,66.4-112.1,73.6   c-49,7.3-93.3-4.7-131.8-35.9c-34.2-27.7-54.3-63.8-60.5-107.4C79.4,207,117.3,135,185,104.4c63.6-28.7,123.8-20.4,179.2,22.4   c1.3,1,2.5,2.2,3.5,3.1c-16.3,16.3-32.6,32.4-48.6,48.4c-7.4-4.1-15-9.3-23.3-12.9c-61.1-26.7-131.6,15-137.9,81.3   c-4.9,51.1,26.6,96.3,76.8,107.6c32.4,7.3,63,2.1,89.1-20.2c12.7-10.8,20.1-25,23.7-42.1c-15.4,0-30.3,0-45.2,0   c-14.8,0-29.6,0-44.9,0c0-21.8,0-43.4,0-65.3C309.5,226.5,361.7,226.5,414.3,226.5z"/></g></svg>